<svg width="50" height="50" viewBox="0 0 50 50" fill="none" xmlns="http://www.w3.org/2000/svg">
<path d="M25 47.5C12.5736 47.5 2.5 37.4264 2.5 25C2.5 12.5736 12.5736 2.5 25 2.5C37.4264 2.5 47.5 12.5736 47.5 25C47.5 37.4264 37.4264 47.5 25 47.5Z" stroke="#FF0000" stroke-width="5"/>
<path d="M26.4688 29.0156H22.7188L22.1875 13.25H27L26.4688 29.0156ZM24.5938 31.4844C25.3542 31.4844 25.9635 31.7083 26.4219 32.1562C26.8906 32.6042 27.125 33.1771 27.125 33.875C27.125 34.5625 26.8906 35.1302 26.4219 35.5781C25.9635 36.026 25.3542 36.25 24.5938 36.25C23.8438 36.25 23.2344 36.026 22.7656 35.5781C22.3073 35.1302 22.0781 34.5625 22.0781 33.875C22.0781 33.1875 22.3073 32.6198 22.7656 32.1719C23.2344 31.7135 23.8438 31.4844 24.5938 31.4844Z" fill="#FF0000"/>
</svg>