<svg width="50" height="50" viewBox="0 0 50 50" fill="none" xmlns="http://www.w3.org/2000/svg">
<path fill-rule="evenodd" clip-rule="evenodd" d="M25 50C11.1929 50 0 38.8071 0 25C0 11.1929 11.1929 0 25 0C38.8071 0 50 11.1929 50 25C50 38.8071 38.8071 50 25 50Z" fill="#5FD800"/>
<rect x="11.5" y="21.5" width="9" height="14" fill="white" stroke="#5FD800"/>
<rect x="20.5" y="14.5" width="10" height="21" fill="white" stroke="#5FD800"/>
<rect x="30.5" y="26.5" width="9" height="9" fill="white" stroke="#5FD800"/>
<path d="M26.228 22H25.2402V18.1924L24.061 18.5581V17.7549L26.1221 17.0166H26.228V22Z" fill="#5FD800"/>
<path d="M34.4287 30.4922H34.8799C35.0947 30.4922 35.2539 30.4385 35.3574 30.3311C35.4609 30.2236 35.5127 30.0811 35.5127 29.9033C35.5127 29.7314 35.4609 29.5977 35.3574 29.502C35.2559 29.4062 35.1152 29.3584 34.9355 29.3584C34.7734 29.3584 34.6377 29.4033 34.5283 29.4932C34.4189 29.5811 34.3643 29.6963 34.3643 29.8389H33.5176C33.5176 29.6162 33.5771 29.417 33.6963 29.2412C33.8174 29.0635 33.9854 28.9248 34.2002 28.8252C34.417 28.7256 34.6553 28.6758 34.915 28.6758C35.3662 28.6758 35.7197 28.7842 35.9756 29.001C36.2314 29.2158 36.3594 29.5127 36.3594 29.8916C36.3594 30.0869 36.2998 30.2666 36.1807 30.4307C36.0615 30.5947 35.9053 30.7207 35.7119 30.8086C35.9521 30.8945 36.1309 31.0234 36.248 31.1953C36.3672 31.3672 36.4268 31.5703 36.4268 31.8047C36.4268 32.1836 36.2881 32.4873 36.0107 32.7158C35.7354 32.9443 35.3701 33.0586 34.915 33.0586C34.4893 33.0586 34.1406 32.9463 33.8691 32.7217C33.5996 32.4971 33.4648 32.2002 33.4648 31.8311H34.3115C34.3115 31.9912 34.3711 32.1221 34.4902 32.2236C34.6113 32.3252 34.7598 32.376 34.9355 32.376C35.1367 32.376 35.2939 32.3232 35.4072 32.2178C35.5225 32.1104 35.5801 31.9688 35.5801 31.793C35.5801 31.3672 35.3457 31.1543 34.877 31.1543H34.4287V30.4922Z" fill="#5FD800"/>
<path d="M17.4912 28H14.5674V27.4199L15.9473 25.9492C16.1367 25.7422 16.2764 25.5615 16.3662 25.4072C16.458 25.2529 16.5039 25.1064 16.5039 24.9678C16.5039 24.7783 16.4561 24.6299 16.3604 24.5225C16.2646 24.4131 16.1279 24.3584 15.9502 24.3584C15.7588 24.3584 15.6074 24.4248 15.4961 24.5576C15.3867 24.6885 15.332 24.8613 15.332 25.0762H14.4824C14.4824 24.8164 14.5439 24.5791 14.667 24.3643C14.792 24.1494 14.9678 23.9814 15.1943 23.8604C15.4209 23.7373 15.6777 23.6758 15.9648 23.6758C16.4043 23.6758 16.7451 23.7812 16.9873 23.9922C17.2314 24.2031 17.3535 24.501 17.3535 24.8857C17.3535 25.0967 17.2988 25.3115 17.1895 25.5303C17.0801 25.749 16.8926 26.0039 16.627 26.2949L15.6572 27.3174H17.4912V28Z" fill="#5FD800"/>
</svg>