<svg width="50" height="50" viewBox="0 0 50 50" fill="none" xmlns="http://www.w3.org/2000/svg">
<path fill-rule="evenodd" clip-rule="evenodd" d="M25 50C11.1929 50 0 38.8071 0 25C0 11.1929 11.1929 0 25 0C38.8071 0 50 11.1929 50 25C50 38.8071 38.8071 50 25 50Z" fill="#5FD800"/>
<path d="M31.7414 32.6098H31.3966L31.1251 32.8222L31.7414 33.6098C31.1251 32.8222 31.1239 32.8232 31.1226 32.8242L31.1201 32.8262L31.115 32.8303L31.1042 32.839C31.0969 32.8451 31.0891 32.8516 31.081 32.8586C31.0649 32.8727 31.0474 32.8887 31.0288 32.9067C30.9916 32.9429 30.9501 32.9872 30.9069 33.0406C30.82 33.148 30.728 33.2895 30.6498 33.4695C30.4902 33.8368 30.4086 34.3158 30.4854 34.917C30.5763 35.6277 30.8891 36.5202 31.5741 37.6559C31.5093 37.61 31.4439 37.5637 31.3781 37.5169C29.9389 36.493 28.374 35.3199 27.1659 34.4003C26.5625 33.9411 26.0496 33.5461 25.6876 33.2661C25.5067 33.1261 25.3635 33.0149 25.2658 32.9388L25.1541 32.8518L25.1256 32.8295L25.1185 32.824L25.1167 32.8226L25.1163 32.8223C25.1163 32.8222 25.1162 32.8222 24.5 33.6098L25.1162 32.8222L24.8447 32.6098H24.5L9.41379 32.6098C9.12783 32.6098 8.76364 32.4604 8.45355 32.1571C8.14208 31.8524 8 31.5059 8 31.2488L8 16.361C8 16.1039 8.14209 15.7574 8.45356 15.4527C8.76364 15.1494 9.12784 15 9.4138 15H39.5862C39.8722 15 40.2364 15.1494 40.5464 15.4527C40.8579 15.7574 41 16.1039 41 16.361V31.2488C41 31.5059 40.8579 31.8524 40.5464 32.1571C40.2364 32.4604 39.8722 32.6098 39.5862 32.6098H31.7414Z" fill="#5FD800" stroke="white" stroke-width="2"/>
<path d="M12 18.861H37V20.861H12V18.861Z" fill="white"/>
<path d="M12 22.861H37V24.861H12V22.861Z" fill="white"/>
<path d="M12 26.861H22V28.861H12V26.861Z" fill="white"/>
</svg>