<svg width="50" height="50" viewBox="0 0 50 50" fill="none" xmlns="http://www.w3.org/2000/svg">
<path fill-rule="evenodd" clip-rule="evenodd" d="M25 50C11.1929 50 0 38.8071 0 25C0 11.1929 11.1929 0 25 0C38.8071 0 50 11.1929 50 25C50 38.8071 38.8071 50 25 50Z" fill="#5FD800"/>
<path d="M22.1348 30.1426C22.1348 28.502 22.334 27.1953 22.7324 26.2227C23.1309 25.25 23.8574 24.2949 24.9121 23.3574C25.9785 22.4082 26.6875 21.6406 27.0391 21.0547C27.3906 20.457 27.5664 19.8301 27.5664 19.1738C27.5664 17.1934 26.6523 16.2031 24.8242 16.2031C23.957 16.2031 23.2598 16.4727 22.7324 17.0117C22.2168 17.5391 21.9473 18.2715 21.9238 19.209H16.8262C16.8496 16.9707 17.5703 15.2188 18.9883 13.9531C20.418 12.6875 22.3633 12.0547 24.8242 12.0547C27.3086 12.0547 29.2363 12.6582 30.6074 13.8652C31.9785 15.0605 32.6641 16.7539 32.6641 18.9453C32.6641 19.9414 32.4414 20.8848 31.9961 21.7754C31.5508 22.6543 30.7715 23.6328 29.6582 24.7109L28.2344 26.0645C27.3438 26.9199 26.834 27.9219 26.7051 29.0703L26.6348 30.1426H22.1348ZM21.625 35.5391C21.625 34.7539 21.8887 34.1094 22.416 33.6055C22.9551 33.0898 23.6406 32.832 24.4727 32.832C25.3047 32.832 25.9844 33.0898 26.5117 33.6055C27.0508 34.1094 27.3203 34.7539 27.3203 35.5391C27.3203 36.3125 27.0566 36.9512 26.5293 37.4551C26.0137 37.959 25.3281 38.2109 24.4727 38.2109C23.6172 38.2109 22.9258 37.959 22.3984 37.4551C21.8828 36.9512 21.625 36.3125 21.625 35.5391Z" fill="white"/>
</svg>