<svg width="158" height="162" viewBox="0 0 158 162" fill="none" xmlns="http://www.w3.org/2000/svg">
<path fill-rule="evenodd" clip-rule="evenodd" d="M84.1167 22.0503L66.3251 41.942L28.3417 38.6586L0.383322 69.9169L23.1167 90.2503C17.5017 96.5279 18.039 106.169 24.3166 111.784L35.6833 121.95L30.6 127.634L41.9666 137.8L47.05 132.117L58.4166 142.284C64.6943 147.899 74.3351 147.361 79.95 141.084L102.683 161.417L130.642 130.159L123.158 92.7754L140.95 72.8837C156.993 54.9467 165.658 23.3731 148.117 7.68366C130.576 -8.00577 100.16 4.11325 84.1167 22.0503ZM57.2167 120.75L68.5833 130.917L119.417 74.0837L129.583 62.717C140.73 50.2548 147.058 27.1965 137.95 19.0503C128.842 10.9042 106.63 19.7548 95.4834 32.217L85.3167 43.5836L34.4833 100.417L45.85 110.584L76.35 76.4836L87.7167 86.6503L57.2167 120.75ZM34.625 54.5086L53.6167 56.1503L33.2833 78.8836L21.9167 68.7169L34.625 54.5086ZM90.1167 129.717L110.45 106.984L114.192 125.675L101.483 139.884L90.1167 129.717ZM97.2834 64.517C91.0057 58.9021 90.4685 49.2613 96.0834 42.9836C101.698 36.706 111.339 36.1688 117.617 41.7837C123.894 47.3986 124.432 57.0394 118.817 63.317C113.202 69.5946 103.561 70.1319 97.2834 64.517Z" fill="black"/>
</svg>
