<svg width="50" height="50" viewBox="0 0 50 50" fill="none" xmlns="http://www.w3.org/2000/svg">
<path fill-rule="evenodd" clip-rule="evenodd" d="M25 50C11.1929 50 0 38.8071 0 25C0 11.1929 11.1929 0 25 0C38.8071 0 50 11.1929 50 25C50 38.8071 38.8071 50 25 50Z" fill="#5FD800"/>
<circle cx="30.3345" cy="19.7279" r="8" transform="rotate(45 30.3345 19.7279)" fill="#5FD800" stroke="white" stroke-width="2"/>
<path d="M35.1586 18.7301C35.5866 18.5162 36.0888 18.7558 36.1266 19.2328C36.2187 20.3972 36.1109 22.4369 34.5772 23.9706C33.0434 25.5043 31.0037 25.6121 29.8393 25.52C29.3624 25.4823 29.1227 24.98 29.3367 24.552V24.552C29.5035 24.2184 29.8936 24.0543 30.2649 24.0907C31.0279 24.1654 32.3493 24.0771 33.5165 22.9099C34.6837 21.7427 34.772 20.4214 34.6972 19.6583C34.6609 19.2871 34.825 18.8969 35.1586 18.7301V18.7301Z" fill="white"/>
<rect x="21.8492" y="25.3848" width="4" height="14" rx="2" transform="rotate(45 21.8492 25.3848)" fill="white"/>
</svg>