<svg width="55" height="55" viewBox="0 0 55 55" fill="none" xmlns="http://www.w3.org/2000/svg">
<path fill-rule="evenodd" clip-rule="evenodd" d="M27.5003 52.7077C13.5781 52.7077 2.29199 41.4215 2.29199 27.4993C2.29199 13.5772 13.5781 2.29102 27.5003 2.29102C41.4225 2.29102 52.7087 13.5772 52.7087 27.4993C52.7087 41.4215 41.4225 52.7077 27.5003 52.7077ZM27.5003 48.1244C38.8912 48.1244 48.1253 38.8902 48.1253 27.4993C48.1253 16.1085 38.8912 6.87435 27.5003 6.87435C16.1095 6.87435 6.87533 16.1085 6.87533 27.4993C6.87533 38.8902 16.1095 48.1244 27.5003 48.1244ZM29.7921 38.9579V23.8654L35.0466 29.12L38.2875 25.8791L27.5004 15.092L16.7133 25.8791L19.9542 29.12L25.2088 23.8654V38.9579H29.7921Z" fill="black"/>
</svg>
